<mxfile host="app.diagrams.net" modified="2024-05-10T10:10:15.017Z" agent="Mozilla/5.0 (Windows NT 10.0; Win64; x64) AppleWebKit/537.36 (KHTML, like Gecko) Chrome/124.0.0.0 Safari/537.36" etag="DKWW-DyXQQyv6_S7QQmK" version="24.2.5" type="github">
  <diagram id="C5RBs43oDa-KdzZeNtuy" name="Page-1">
    <mxGraphModel dx="548" dy="573" grid="1" gridSize="10" guides="1" tooltips="1" connect="1" arrows="1" fold="1" page="1" pageScale="1" pageWidth="827" pageHeight="1169" math="0" shadow="0">
      <root>
        <mxCell id="WIyWlLk6GJQsqaUBKTNV-0" />
        <mxCell id="WIyWlLk6GJQsqaUBKTNV-1" parent="WIyWlLk6GJQsqaUBKTNV-0" />
        <mxCell id="L7IZt4WPcCWB0JEOpLkI-8" style="edgeStyle=orthogonalEdgeStyle;rounded=0;orthogonalLoop=1;jettySize=auto;html=1;" edge="1" parent="WIyWlLk6GJQsqaUBKTNV-1" source="L7IZt4WPcCWB0JEOpLkI-2" target="L7IZt4WPcCWB0JEOpLkI-7">
          <mxGeometry relative="1" as="geometry" />
        </mxCell>
        <mxCell id="L7IZt4WPcCWB0JEOpLkI-9" value="esegue" style="edgeLabel;html=1;align=center;verticalAlign=middle;resizable=0;points=[];" vertex="1" connectable="0" parent="L7IZt4WPcCWB0JEOpLkI-8">
          <mxGeometry x="-0.1874" y="4" relative="1" as="geometry">
            <mxPoint as="offset" />
          </mxGeometry>
        </mxCell>
        <object label="Giocatore" Giocatore="" id="L7IZt4WPcCWB0JEOpLkI-2">
          <mxCell style="shape=umlActor;verticalLabelPosition=bottom;verticalAlign=top;html=1;outlineConnect=0;" vertex="1" parent="WIyWlLk6GJQsqaUBKTNV-1">
            <mxGeometry x="250" y="420" width="30" height="60" as="geometry" />
          </mxCell>
        </object>
        <mxCell id="L7IZt4WPcCWB0JEOpLkI-7" value="Mossa" style="rounded=0;whiteSpace=wrap;html=1;" vertex="1" parent="WIyWlLk6GJQsqaUBKTNV-1">
          <mxGeometry x="50" y="555" width="120" height="60" as="geometry" />
        </mxCell>
      </root>
    </mxGraphModel>
  </diagram>
</mxfile>
